PathFileType	4	(X/Y/Z)	pose_F01_0-82.trc
DataRate	CameraRate	NumFrames	NumMarkers	Units	OrigDataRate	OrigDataStartFrame	OrigNumFrames
30	30	7	21	m	30	61	82
Frame#	Time	CHip			RHip			RKnee			RAnkle			RBigToe			RSmallToe			RHeel			LHip			LKnee			LAnkle			LBigToe			LSmallToe			LHeel			Neck			Nose			RShoulder			RElbow			RWrist			LShoulder			LElbow			LWrist			
		X1	Y1	Z1	X2	Y2	Z2	X3	Y3	Z3	X4	Y4	Z4	X5	Y5	Z5	X6	Y6	Z6	X7	Y7	Z7	X8	Y8	Z8	X9	Y9	Z9	X10	Y10	Z10	X11	Y11	Z11	X12	Y12	Z12	X13	Y13	Z13	X14	Y14	Z14	X15	Y15	Z15	X16	Y16	Z16	X17	Y17	Z17	X18	Y18	Z18	X19	Y19	Z19	X20	Y20	Z20	X21	Y21	Z21	
61	2.033333333333333	-0.2359477168905097	1.8213206058260827	-0.515659730383004	-0.24402436706371475	1.819564975584518	-0.45321847194380843	-0.25677604029553075	1.6840243775884596	-0.42591418584769536	-0.25877308353383316	1.5526294219196908	-0.39983918026109005	-0.22839895240826902	1.5172953116809635	-0.4337302787480582	-0.23372716630425078	1.5168569470225906	-0.39947609906678533	-0.2662656025379477	1.5423109906651813	-0.399625525520781	-0.22216510005582568	1.8243713376931163	-0.5909914438421	-0.2397338174517529	1.6878329250848785	-0.5481439658958992	-0.2523962562771854	1.558825081388215	-0.5267557622394667	-0.2140060878443739	1.5288120904992244	-0.5689459459396892	-0.2203066713225776	1.5345779443765635	-0.5928257390636437	-0.25398052855053654	1.5517656183326365	-0.515495989909465	-0.23651400504186407	1.9857131530695604	-0.5410065384711669	-0.21392510902671544	2.057973158677821	-0.5668718659745701	-0.25227357789433025	1.9833015346080067	-0.43718053170874377	-0.26699636443720054	1.8956893878221028	-0.37066358168926866	-0.23450475157930073	1.9180071428691485	-0.46470234888227224	-0.22170177783611647	1.9910560268015771	-0.6404157290406567	-0.21355425189546462	1.9164517736818187	-0.6927115822599837	-0.19633436551822267	1.9211527971745035	-0.6218475418355157
62	2.066666666666667	-0.23371644485922216	1.8184870622988891	-0.5174826805839305	-0.24203209082339996	1.8156552349619857	-0.4548396123142795	-0.2566177588951635	1.683033044057757	-0.425987662012359	-0.2594873044562925	1.5506706659324463	-0.403392858858194	-0.22677945895479826	1.5162113307410952	-0.4400478553388903	-0.23338638595550895	1.515596958251586	-0.3996423444143753	-0.2660615721748727	1.5409948215056597	-0.3999334542945562	-0.21906900137434618	1.8204057719554674	-0.5896751417999428	-0.23775712701011723	1.6859455795128104	-0.5500740732905642	-0.2526722014953417	1.5602543613582114	-0.5264138711127669	-0.21403071950233923	1.5288845806372016	-0.5688418419867729	-0.22127459988135526	1.536142799898314	-0.5880278508824252	-0.2540231854312349	1.552111928270383	-0.5151308159945577	-0.23554407367923794	1.98696627173958	-0.5467717760647856	-0.21384444834326533	2.0590880333756516	-0.5668190380255775	-0.24946836315612295	1.9833556045268577	-0.44463543531083505	-0.26628348861097667	1.8974342947837408	-0.3763610357286464	-0.22162075022665154	1.9185577814873467	-0.4834183306125013	-0.22047246039060228	1.992563287844228	-0.6460437853834337	-0.215151892234228	1.9162195775556536	-0.6990155249370403	-0.19312035887111553	1.919807431349442	-0.6207558076512953
63	2.1	-0.2347799506457413	1.8240497613693047	-0.5215604530924668	-0.24315985535739718	1.8212989373254183	-0.4589179703543431	-0.25678772232742536	1.684202092837214	-0.4259753154458657	-0.2585695739910873	1.5513835933625995	-0.4001396675198051	-0.22789577621503943	1.5174053934756808	-0.43465066910063516	-0.23377228021276933	1.5173240709924598	-0.39950236738796613	-0.2662340338534247	1.5417384471008886	-0.399976830639139	-0.21808200019788676	1.8261338319070533	-0.5956756132474639	-0.23798010815040516	1.6874468814066605	-0.5500495543848953	-0.2509670488567003	1.559018165253679	-0.5280252281494549	-0.20971786552734847	1.5284480425917804	-0.573664671363357	-0.21804938952180666	1.5338010089375014	-0.5953722791889552	-0.25403581689656235	1.5520171733376238	-0.5155762952787045	-0.23642076572216097	1.9870757979938627	-0.55007245704	-0.21378700725090935	2.060366035376152	-0.5674945377732707	-0.250449766060018	1.9833580716307913	-0.4479212630456473	-0.26442312216119473	1.8973937620270782	-0.37861160207561306	-0.2214672361901602	1.9183729777901954	-0.4835042334201095	-0.2183767953985794	1.9926172318700717	-0.6484624883435297	-0.2077177576648363	1.916577556526908	-0.7028203761583096	-0.1922493239966016	1.9197166515132158	-0.6175242811056753
64	2.1333333333333333	-0.23249402688533777	1.821092392496827	-0.5232963902838165	-0.24190048054880278	1.8182962478243128	-0.4554193350279891	-0.2545841290009401	1.6823868611246093	-0.4282038468437439	-0.25953076959547317	1.5508714498086407	-0.4034589400415964	-0.22811852560002785	1.5158622142012395	-0.43412291038609363	-0.23360791557648708	1.5163645008290605	-0.39953510354587035	-0.2662019869168823	1.5419431888136872	-0.39976589448329125	-0.21778012654277393	1.8232405176842488	-0.5953327713233322	-0.2357460709411848	1.6859171947040883	-0.5522474247140393	-0.2505452807014419	1.556953551210934	-0.5282684856343417	-0.21177684263778773	1.5281018859415727	-0.5714875102078354	-0.2201656748124527	1.5337173481580948	-0.5931811315995674	-0.2536624070680317	1.5504024867880308	-0.5154856588025591	-0.2372384394937255	1.9858669639310147	-0.5527519842902004	-0.21277522974679336	2.0605001265251994	-0.5726156141032595	-0.25046163341728045	1.9832255398920475	-0.4480454696141057	-0.26433478999849497	1.8959301208116632	-0.37837450948301454	-0.21650828790290413	1.9167877418335941	-0.47562554005341473	-0.2182371233248792	1.9913069392045812	-0.6481911261031859	-0.2019183037941394	1.9175362347189115	-0.7126155749235227	-0.18973549719285376	1.918150739419446	-0.6076229920484862
65	2.1666666666666665	-0.2306232365756088	1.8201328308333213	-0.5252988100467841	-0.24284872666149895	1.8184243386849317	-0.45859334850833583	-0.25287662298821123	1.681494883225812	-0.43005803945867577	-0.25980761387752244	1.5523094731755245	-0.4031044711519597	-0.2278361553256951	1.5170859408094362	-0.4346767681891149	-0.23399360373648587	1.5186470020426481	-0.39925502457930945	-0.2663420191001248	1.542353221893155	-0.39970188210380375	-0.2170002732011209	1.822107234577577	-0.5921433489148772	-0.2359828422209015	1.6876390402421984	-0.5521663519696787	-0.2508600840052479	1.5587463960575525	-0.5279166551515386	-0.20954115547343632	1.5277853514556163	-0.573520258952235	-0.21700897750949819	1.5334067904805837	-0.5921271278802893	-0.25405011057445964	1.5525737979891527	-0.5151574440751164	-0.23530403633688926	1.986013517086051	-0.5550497069330227	-0.21360330746985937	2.060630525805429	-0.575789546605061	-0.24956202988970155	1.9832270501279186	-0.4534190606333973	-0.2598038901147203	1.8976185771295806	-0.388601221715917	-0.21827524730265394	1.912578407771816	-0.47226449834123985	-0.2170830554766986	1.991434590586439	-0.6534053982317739	-0.20179446001700138	1.9180225359890044	-0.7126966752317976	-0.19171873408536613	1.9168017817208405	-0.6052283206989938
66	2.2	-0.22606686807480697	1.8183049424201339	-0.5297561158793662	-0.2405110524423697	1.8165600837267304	-0.4606383949243454	-0.2527843141243575	1.6813600410624456	-0.4300691093584709	-0.25976240112242577	1.5522136634948478	-0.403157829097563	-0.2290927960022339	1.518150788469541	-0.4375898105929917	-0.23390434088369486	1.5179271401341932	-0.3992160502312824	-0.2662167009811384	1.5419398667646502	-0.39972012501438653	-0.21453301147946177	1.8203932255406339	-0.5942617816347923	-0.23581200649314019	1.6863657854575833	-0.5522835607232973	-0.251060627668972	1.5572910980775203	-0.5274389054419847	-0.20961029559057381	1.5280035003201657	-0.5735728494277093	-0.21914666875809213	1.533564197521181	-0.589954968034837	-0.25397538708083317	1.5523564266911345	-0.5152072730898389	-0.23527873126081536	1.9859903303697601	-0.5551256366008325	-0.21353817961775529	2.060730176923027	-0.5759201453779684	-0.25054807717893246	1.9832469628358806	-0.4565840600271183	-0.2609024484874996	1.8989958353481735	-0.39228752609800577	-0.21936016280637208	1.9126829478611662	-0.47556145368515806	-0.21711146776641813	1.988928934930338	-0.6530810051026154	-0.19967961915129792	1.915944870344326	-0.7146094552935107	-0.1939886995895017	1.9075772875536945	-0.6012692108635379
67	2.2333333333333334	-0.22435518319321224	1.8190136072143799	-0.5318747182595994	-0.2407525731263287	1.8170829980396936	-0.460639395859073	-0.25082195250241074	1.6817840746277348	-0.43219374344935835	-0.2595673672788113	1.5510777281409407	-0.40342671083376413	-0.22788595475068088	1.5172762643295754	-0.4346965166186919	-0.2336873221823274	1.5169673957472904	-0.3995678765686961	-0.2664076840762994	1.5428764102575727	-0.3997672838836067	-0.21479416909359403	1.8207405340969574	-0.5942509508863153	-0.2357691491805085	1.6861835902515092	-0.5523140322687596	-0.2505194809659034	1.5570931241991508	-0.5283334548993937	-0.21178432171464276	1.527938994801358	-0.5714718184052213	-0.220131094180831	1.5335909758755797	-0.5931745796678101	-0.25379415648722514	1.551232714522542	-0.5155477889041558	-0.23523230461953704	1.986003990351349	-0.5551466106032531	-0.2124428179820432	2.0610110036914526	-0.5811132653200275	-0.24867420760373973	1.983259093333476	-0.45862467030851606	-0.25891046130413214	1.8974654687376231	-0.3940185704992191	-0.21820136726348052	1.9112383894058664	-0.4720061396047622	-0.21713442183551362	1.9902282954330925	-0.6535105219441053	-0.19978834791815175	1.9144307792469435	-0.7145976172433822	-0.1881852421257885	1.9025635410203356	-0.59894211617743
